<?xml version="1.0"?>
<svg xmlns="http://www.w3.org/2000/svg" height="512px" viewBox="0 0 64 64" width="512px" class="hovered-paths"><g><g id="Smart_House" data-name="Smart House"><g fill="#bddbff"><path d="m56.5 31.5a2.121 2.121 0 0 1 -3 3l-3.5-3.5-16.59-16.59a1.992 1.992 0 0 0 -2.82 0l-16.59 16.59-3.5 3.5a2.121 2.121 0 0 1 -3-3l23.09-23.09a1.992 1.992 0 0 1 2.82 0l8.59 8.59 8 8z" data-original="#000000" class="" data-old_color="#000000" style="fill:#FFFFFF"/><path d="m52 8v2a1 1 0 0 1 -1 1h-10a1 1 0 0 1 -1-1v-2a1 1 0 0 1 1-1h10a1 1 0 0 1 1 1z" data-original="#000000" class="" data-old_color="#000000" style="fill:#FFFFFF"/><path d="m56 56a4 4 0 0 0 -8 0 3.737 3.737 0 0 0 .15 1.01c-.05 0-.1-.01-.15-.01a4 4 0 0 0 -4 4h17a5 5 0 0 0 -5-5z" data-original="#000000" class="" data-old_color="#000000" style="fill:#FFFFFF"/><path d="m50 11v14l-8-8v-6z" data-original="#000000" class="" data-old_color="#000000" style="fill:#FFFFFF"/><path d="m36 33h-4-4-4v4 4 4 4h4 4 4 4v-4-4-4-4z" data-original="#000000" class="" data-old_color="#000000" style="fill:#FFFFFF"/><path d="m14 56.1a4.712 4.712 0 0 0 -1-.1c-.06 0-.12.02-.18.02a2.991 2.991 0 0 0 -5.82.98 2.955 2.955 0 0 0 .32 1.32 2.955 2.955 0 0 0 -1.32-.32 3 3 0 0 0 -3 3h15a5 5 0 0 0 -4-4.9z" data-original="#000000" class="" data-old_color="#000000" style="fill:#FFFFFF"/></g><path d="m56.913 55.069a5 5 0 0 0 -5.913-3.969v-17.686l1.793 1.793a3.121 3.121 0 0 0 4.414-4.414l-6.207-6.207v-12.586a2 2 0 0 0 2-2v-2a2 2 0 0 0 -2-2h-10a2 2 0 0 0 -2 2v2a2 2 0 0 0 2 2v2.586l-6.879-6.879a3.072 3.072 0 0 0 -4.242 0l-23.086 23.086a3.121 3.121 0 0 0 4.414 4.414l1.793-1.793v20.968a3.983 3.983 0 0 0 -7 2.618 4 4 0 0 0 -4 4 1 1 0 0 0 1 1h58a1 1 0 0 0 1-1 6.01 6.01 0 0 0 -5.087-5.931zm-15.913-47.069h10v2h-10zm2 4h6v10.586l-6-6zm-33.207 21.793a1.121 1.121 0 0 1 -1.586-1.586l23.086-23.086a1 1 0 0 1 1.414 0l23.086 23.086a1.121 1.121 0 0 1 -1.586 1.586l-20.086-20.086a3 3 0 0 0 -4.242 0zm21.5-18.672a1 1 0 0 1 1.414 0l16.293 16.293v20.612a4.977 4.977 0 0 0 -2 3.974v.1a5.007 5.007 0 0 0 -3.89 3.9h-24.2a6.013 6.013 0 0 0 -3.91-4.652v-23.934zm-27.024 44.879a1.992 1.992 0 0 1 2.606-.786 1 1 0 0 0 1.339-1.339 1.972 1.972 0 0 1 -.214-.875 1.992 1.992 0 0 1 3.877-.653 1 1 0 0 0 .985.67.513.513 0 0 0 .138-.017 4.009 4.009 0 0 1 3.874 3zm40.9 0a2.976 2.976 0 0 1 2.767-2c.034 0 .134.015.168.016a1 1 0 0 0 1.007-1.255 2.944 2.944 0 0 1 -.111-.761 3 3 0 0 1 6 0 1 1 0 0 0 1 1 4.009 4.009 0 0 1 3.874 3z" fill="#3d9ae2" data-original="#3D9AE2" class="hovered-path active-path" data-old_color="#3d9ae2" style="fill:#673AB7"/><path d="m21 44a1 1 0 0 0 -.707.293l-1.707 1.707h-1.586v2h2a1 1 0 0 0 .707-.293l1.707-1.707h1.586v3a1 1 0 0 0 1 1h3v1.586l-1.707 1.707a1 1 0 0 0 -.293.707v2h2v-1.586l1.707-1.707a1 1 0 0 0 .293-.707v-2h2v6h2v-6h2v2a1 1 0 0 0 .293.707l1.707 1.707v1.586h2v-2a1 1 0 0 0 -.293-.707l-1.707-1.707v-1.586h3a1 1 0 0 0 1-1v-3h1.586l1.707 1.707a1 1 0 0 0 .707.293h2v-2h-1.586l-1.707-1.707a1 1 0 0 0 -.707-.293h-2v-2h6v-2h-6v-2h2a1 1 0 0 0 .707-.293l1.707-1.707h1.586v-2h-2a1 1 0 0 0 -.707.293l-1.707 1.707h-1.586v-3a1 1 0 0 0 -1-1h-3v-1.586l1.707-1.707a1 1 0 0 0 .293-.707v-2h-2v1.586l-1.707 1.707a1 1 0 0 0 -.293.707v2h-2v-6h-2v6h-2v-2a1 1 0 0 0 -.293-.707l-1.707-1.707v-1.586h-2v2a1 1 0 0 0 .293.707l1.707 1.707v1.586h-3a1 1 0 0 0 -1 1v3h-1.586l-1.707-1.707a1 1 0 0 0 -.707-.293h-2v2h1.586l1.707 1.707a1 1 0 0 0 .707.293h2v2h-6v2h6v2zm4-10h14v14h-14z" fill="#3d9ae2" data-original="#3D9AE2" class="hovered-path active-path" data-old_color="#3d9ae2" style="fill:#673AB7"/><path d="m31 37h-2a2 2 0 0 0 -2 2v6h2v-2h2v2h2v-6a2 2 0 0 0 -2-2zm-2 4v-2h2v2z" fill="#3d9ae2" data-original="#3D9AE2" class="hovered-path active-path" data-old_color="#3d9ae2" style="fill:#673AB7"/><path d="m35 37h2v8h-2z" fill="#3d9ae2" data-original="#3D9AE2" class="hovered-path active-path" data-old_color="#3d9ae2" style="fill:#673AB7"/></g></g> </svg>
